<?xml version="1.0" encoding="UTF-8"?>
<svg width="3595px" height="892px" viewBox="0 0 3595 892" version="1.1" xmlns="http://www.w3.org/2000/svg"
    xmlns:xlink="http://www.w3.org/1999/xlink">
    <!-- Generator: Sketch 50 (54983) - http://www.bohemiancoding.com/sketch -->
    <title>欣才logo</title>
    <desc>Created with Sketch.</desc>
    <defs></defs>
    <g id="Page-1" stroke="none" stroke-width="1" fill="none" fill-rule="evenodd">
        <g id="Group">
            <path
                d="M2287.12793,429.986336 C2280.15007,430.847978 2271.46199,430.989508 2261.06368,430.410927 C2144.58181,423.929662 2117.90795,448.549727 2116,441.824946 C2136.98437,422.774941 2166.42753,384.907966 2204.32948,328.224021 L2259.08602,79.9231107 C2268.82005,35.7827955 2313.80865,0 2359.57085,0 L3527.89406,0 C3573.65627,0 3602.86287,35.7827955 3593.12883,79.9231107 L3533.55622,350.063225 C3523.82218,394.20354 3478.83358,429.986336 3433.07138,429.986336 L2287.12793,429.986336 Z"
                id="Combined-Shape" fill="#fd7e14"></path>
            <rect id="Rectangle" fill="#fd7e14" x="2769" y="831" width="60" height="60"></rect>
            <path
                d="M2057,553 C2062.31087,530.052227 2066.17084,511.925686 2068.58001,498.619835 C2069.27832,494.763066 2070.1247,489.556507 2071.11917,483 C2094.36048,483.385677 2113.87966,483.578512 2129.67729,483.578512 C2151.4472,483.578512 2170.55458,483.385677 2187,483 C2185.33966,488.977991 2184.04656,493.991715 2183.12068,498.041322 L2174.89255,533.909091 C2173.52961,539.308567 2172.18476,545.67214 2170.85797,553 C2151.85505,552.614323 2133.58811,552.421488 2116.05659,552.421488 C2097.94711,552.421488 2078.26178,552.614323 2057,553 Z"
                id="Path" fill="#fd7e14"></path>
            <path
                d="M2356.58439,199.721573 L2331.3527,199.721573 L2327.09745,226.025505 C2319.1734,268.769394 2307.08951,302.913921 2290.59349,328.459086 L2276,309.489904 C2287.30649,289.509033 2296.34894,261.687566 2302.87504,226.025505 L2320.75528,115.498406 C2350.69233,114.486716 2377.91526,108.416578 2402.71731,97.0350691 L2412.0326,120.556854 C2390.12197,129.662062 2366.5133,135.226355 2341.45893,137.249734 L2335.48521,174.176408 L2406.13392,174.176408 L2402.7379,195.168969 C2420.07271,169.11796 2433.84098,135.479277 2444.54734,94.2529224 L2469.58808,98.5526036 C2466.11022,110.69288 2462.46187,122.327311 2458.93627,133.202976 L2534.63132,133.202976 L2531.88995,150.148778 C2524.12272,171.647184 2515.0939,193.14559 2504.80349,214.643996 L2480.75837,207.309245 C2489.10526,193.14559 2496.77022,176.958555 2504.08738,158.242295 L2449.58694,158.242295 C2438.18499,185.052072 2425.9988,205.791711 2412.94654,220.967056 L2394.84108,206.550478 C2396.51182,204.021254 2398.14165,201.744952 2399.73056,199.721573 L2382.82533,199.721573 L2361.71274,330.229543 L2335.47179,330.229543 L2356.58439,199.721573 Z M2452.76479,172.911796 L2477.74416,172.911796 C2475.12554,189.098831 2471.91364,204.274176 2468.14936,218.18491 C2473.03209,256.629118 2487.72106,287.485654 2511.75256,310.501594 L2491.32175,330.735388 C2473.57089,311.007439 2461.05731,286.979809 2453.69917,259.158342 C2441.1311,288.497343 2419.03636,312.777896 2387.66727,332 L2374.32855,311.513284 C2400.9991,294.820404 2419.8751,274.839532 2431.03838,251.064825 C2440.11494,230.831031 2447.35707,204.780021 2452.76479,172.911796 Z M2660.70074,328.712009 L2620.58236,328.712009 L2618.65926,303.166844 C2631.61607,304.178533 2643.89777,304.684378 2655.50434,304.684378 C2661.30763,304.684378 2664.94917,300.890542 2666.09481,293.808714 L2686.79825,165.829968 L2684.02277,165.829968 C2650.90796,217.679065 2602.65413,260.170032 2539.47268,293.555792 L2529.23677,271.045696 C2584.11905,243.730074 2626.89693,208.573858 2657.02487,165.829968 L2551.30412,165.829968 L2555.43662,140.284803 L2690.93076,140.284803 L2697.92738,97.0350691 L2724.42064,97.0350691 L2717.42402,140.284803 L2777.98006,140.284803 L2773.84756,165.829968 L2713.29152,165.829968 L2691.48335,300.63762 C2688.45557,319.353879 2678.1106,328.712009 2660.70074,328.712009 Z M2819.74931,123.844846 L2849.27038,123.844846 L2820.05644,304.431456 L2790.53537,304.431456 L2819.74931,123.844846 Z M2870.71731,123.844846 L3018.32265,123.844846 L3014.23106,149.137088 L2955.18893,149.137088 L2930.06657,304.431456 L2900.5455,304.431456 L2925.66786,149.137088 L2866.62572,149.137088 L2870.71731,123.844846 Z M3255.0095,145.596174 L3244.82144,208.573858 L3218.58049,208.573858 L3224.67696,170.888417 L3056.38164,170.888417 L3050.28517,208.573858 L3024.29654,208.573858 L3034.4846,145.596174 L3078.89236,145.596174 C3073.40956,132.697131 3067.46987,121.062699 3060.78005,110.945802 L3086.63228,99.3113709 C3093.32892,110.945802 3099.31635,123.844846 3105.0992,138.008502 L3088.73271,145.596174 L3138.69144,145.596174 C3133.78829,130.673751 3128.13502,117.268863 3121.69069,105.634431 L3147.54292,94 C3153.61218,106.393199 3159.47686,120.05101 3164.63233,134.973433 L3141.97156,145.596174 L3180.57604,145.596174 C3193.2055,129.914984 3204.48472,113.222104 3214.66602,95.5175345 L3240.2796,105.634431 C3229.66867,121.315622 3219.42599,134.72051 3209.34015,145.596174 L3255.0095,145.596174 Z M3070.06814,184.546227 L3207.07618,184.546227 L3203.31191,207.81509 C3186.03164,217.931987 3167.02606,227.795962 3146.29517,237.407014 L3145.14953,244.488842 L3238.25444,244.488842 L3234.24468,269.275239 L3141.13977,269.275239 L3135.16605,306.201913 C3132.62927,321.883103 3122.9935,329.976621 3106.34059,329.976621 L3074.04404,329.976621 L3071.37081,305.94899 C3080.37238,306.454835 3090.42414,306.707758 3101.27377,306.707758 C3106.06778,306.707758 3109.12286,303.419766 3110.10484,297.349628 L3114.6465,269.275239 L3015.99063,269.275239 L3020.00038,244.488842 L3118.65626,244.488842 L3121.68404,225.772582 C3139.48259,218.690755 3153.79645,212.873539 3164.70744,207.81509 L3066.30388,207.81509 L3070.06814,184.546227 Z M3513,116.763018 L3503.91667,172.911796 L3483.47901,172.911796 L3480.94222,188.592986 L3384.5572,188.592986 L3387.09398,172.911796 L3365.89937,172.911796 L3374.9827,116.763018 L3428.9785,116.763018 C3427.68963,110.69288 3426.10753,104.875664 3424.15036,99.8172157 L3452.13706,95.2646121 C3453.63733,101.587673 3454.76254,108.669501 3455.9764,116.763018 L3513,116.763018 Z M3392.65176,165.071201 L3479.70107,165.071201 L3483.50624,141.549416 L3396.45694,141.549416 L3392.65176,165.071201 Z M3361.43955,209.83847 L3499.70917,209.83847 L3495.69941,234.624867 L3456.33799,234.624867 L3446.76367,293.808714 C3445.69986,300.384697 3446.93417,303.672689 3450.4666,303.672689 L3457.02684,303.672689 C3458.79306,303.672689 3460.47062,302.660999 3461.9777,301.143464 C3463.81893,299.120085 3466.46483,289.003188 3469.91541,270.792774 L3492.5762,278.886291 C3486.71157,302.660999 3481.6448,316.824655 3477.96234,320.871413 C3473.81617,324.66525 3467.43324,326.688629 3458.81355,326.941552 L3438.37589,326.941552 C3430.80638,326.941552 3425.66457,324.412327 3422.95045,319.353879 C3419.5203,314.042508 3418.52466,307.719447 3419.75214,300.131775 L3430.34936,234.624867 L3413.94876,234.624867 C3407.87955,259.664187 3400.81471,278.380446 3392.54283,290.520723 C3382.01373,305.696068 3366.22008,319.100956 3345.74834,330.229543 L3332.4028,308.225292 C3349.43758,299.62593 3362.38756,289.761955 3370.82992,278.127524 C3377.64246,268.769394 3383.50711,254.352816 3388.21245,234.624867 L3357.42979,234.624867 L3361.43955,209.83847 Z M3294.69138,104.622742 L3372.15264,104.622742 L3368.79754,125.36238 C3358.80037,146.607864 3347.58935,169.11796 3334.91216,192.892667 C3344.7321,216.414453 3348.77601,236.648247 3347.25532,253.846971 C3345.29135,265.987248 3341.58845,274.839532 3336.18751,280.150903 C3328.05882,286.726886 3315.66803,290.014878 3298.46957,290.2678 L3294.4461,265.22848 L3283.80797,330.98831 L3258.07166,330.98831 L3294.69138,104.622742 Z M3294.6916,263.710946 C3300.11982,264.469713 3304.57969,264.975558 3308.36444,264.975558 C3312.98798,264.469713 3316.13853,263.710946 3318.15024,262.193411 C3319.90964,260.675877 3321.11666,257.89373 3321.77132,253.846971 C3324.51268,236.901169 3320.01187,217.931987 3308.77351,196.939426 C3322.41222,171.900106 3333.62324,149.390011 3342.40657,129.409139 L3316.41794,129.409139 L3294.6916,263.710946 Z"
                id="欣才IT学院" fill="#FFFFFF"></path>
            <path
                d="M3193,629.118588 L3126.43259,666.135668 C3126.38283,666.075616 3126.333,666.015621 3126.28309,665.955684 C3107.56612,643.477485 3078.32223,629.01467 3045.45919,629.01467 C2988.95891,629.01467 2943.15638,671.764908 2943.15638,724.5 C2943.15638,777.235092 2988.95891,819.98533 3045.45919,819.98533 C3078.64237,819.98533 3108.13555,805.239354 3126.8271,782.385104 L3189.34965,824.613675 L3189.32662,824.642458 C3156.60396,865.529716 3104.34351,892 3045.45919,892 C2946.34662,892 2866,817.007696 2866,724.5 C2866,631.992304 2946.34662,557 3045.45919,557 C3106.40924,557 3160.2625,585.36007 3192.69777,628.713352 C3192.79872,628.848286 3192.89946,628.983365 3193,629.118588 Z"
                id="Combined-Shape" fill="#fd7e14"></path>
            <path
                d="M3265,880 L3265,564.985133 L3346.02193,564.985133 L3346.02193,599.012984 C3391.03439,554.463027 3437.78612,555.887935 3461.22989,559.772619 C3492.68701,564.985133 3509.22253,577.79444 3524.73357,594.680786 C3540.2446,611.567131 3548,639.416021 3548,668.649373 L3548,880 L3466.97807,880 L3466.97807,688.531584 C3466.97807,654.577319 3445.85844,634.447778 3423.40971,631.214591 C3391.03439,626.551723 3364.62668,637.600441 3346.02193,698.185742 L3346.02193,880 L3265,880 Z"
                id="n" fill="#fd7e14"></path>
            <path
                d="M50.2243533,883.335194 C76.7841426,789.968373 101.204716,687.189566 123.486807,574.99569 L0,578.165535 L7.24688293,546.178914 C11.1188786,529.080875 15.0947787,510.350157 19.1747025,489.9862 C73.7326368,490.370426 137.364969,490.562536 210.073609,490.562536 L281.391552,490.274368 L350.63753,490.274368 L388.198058,489.9862 L381.394719,517.938473 C377.90619,532.923272 375.128759,545.314362 373.062342,555.112115 C370.995926,564.909867 369.509553,572.306099 368.603178,577.301032 C327.788691,575.379904 294.013567,574.419355 267.276792,574.419355 L247.080048,574.419355 C238.024461,608.42332 230.112839,639.833292 223.344944,668.650212 C213.734058,709.954465 204.822062,750.05741 196.608688,788.960253 C188.395314,827.863095 182.109935,859.321094 177.752362,883.335194 C146.276536,882.950969 125.922506,882.758859 116.689663,882.758859 C108.418574,882.758859 86.2636927,882.950969 50.2243533,883.335194 Z M332.63769,883.335194 C340.909532,854.710387 347.391891,831.176922 352.084964,812.734093 C361.784854,774.11942 372.713725,729.261754 384.871904,678.159749 C392.738525,644.347895 399.928225,611.881319 406.441218,580.759045 C412.954212,549.636771 418.877455,519.379459 424.211125,489.9862 C448.569968,490.370426 468.443127,490.562536 483.831199,490.562536 C504.605096,490.562536 524.259454,490.370426 542.794861,489.9862 L524.081509,559.722799 C521.028119,571.249567 515.253838,594.590922 506.758491,629.747565 C514.570215,621.678827 520.852988,615.675392 525.606999,611.73708 C530.36101,607.798767 535.495443,604.148679 541.010451,600.786705 C546.525459,597.424731 552.040693,594.591109 557.556319,592.285756 C563.071945,589.980402 569.30459,587.963248 576.254441,586.234233 C583.204293,584.505217 590.757538,583.160448 598.914403,582.199884 C607.071268,581.23932 615.381296,580.759045 623.844736,580.759045 C640.194562,580.759045 655.684016,582.584089 670.313561,586.234233 C684.943106,589.884376 696.815587,596.272031 705.93136,605.397389 C715.047132,614.522747 720.508774,624.704573 722.316447,635.943172 C724.124121,647.18177 723.807842,659.524833 721.367601,672.972729 C720.426366,678.159774 719.035857,685.027704 717.196035,693.576724 C715.356213,702.125743 712.770203,712.931926 709.437929,725.995597 L685.468443,823.108132 C682.502823,835.211239 680.248601,845.248982 678.705712,853.221663 C677.162822,861.194345 675.293297,871.232088 673.09708,883.335194 C653.162307,882.950969 634.05854,882.758859 615.785205,882.758859 C595.203658,882.758859 574.299039,882.950969 553.070719,883.335194 C560.977142,857.784192 569.204667,828.343347 577.75354,795.011776 C586.302413,761.680205 592.058338,736.849998 595.021488,720.520409 C598.298383,702.461806 596.800274,689.782551 590.527115,682.482265 C584.253957,675.181978 574.866114,671.53189 562.363306,671.53189 C551.206954,671.53189 540.88271,673.837209 531.390266,678.447916 C522.964158,682.482285 515.099025,688.725857 507.794632,697.178821 C501.503667,704.286994 495.503172,714.564875 489.792965,728.012771 C482.982798,744.342359 475.626466,768.452154 467.723749,800.342879 C463.362469,818.017257 457.188532,845.681085 449.201752,883.335194 C429.844033,882.950969 411.702005,882.758859 394.775126,882.758859 C377.655896,882.758859 356.943625,882.950969 332.63769,883.335194 Z M812.403589,551.736598 C817.706104,528.875175 821.559994,510.816842 823.965375,497.561059 C824.662586,493.718803 825.507634,488.531835 826.500543,482 C849.705281,482.384226 869.193744,482.576336 884.966518,482.576336 C906.702169,482.576336 925.779483,482.384226 942.19903,482 C940.5413,487.955497 939.250242,492.950355 938.325819,496.984724 L930.110633,532.717526 C928.749835,538.096684 927.407105,544.436312 926.082402,551.736598 C907.109385,551.352373 888.871183,551.160263 871.367251,551.160263 C853.286267,551.160263 833.631909,551.352373 812.403589,551.736598 Z M734.041826,883.234371 C740.98773,859.796609 746.51082,840.489562 750.611263,825.312651 C754.711705,810.135739 759.530921,790.732638 765.069053,767.102763 C770.607186,743.472888 776.454156,717.345939 782.610137,688.721132 C788.766119,660.096325 795.566302,626.861308 803.01089,589.015087 C827.946786,589.399312 847.916119,589.591422 862.919489,589.591422 C876.576403,589.591422 896.23076,589.399312 921.883151,589.015087 C912.024535,625.324406 903.881502,657.214653 897.453807,684.686783 C891.026111,712.158914 884.831159,741.263567 878.868763,772.001615 C868.198953,826.56165 861.086265,863.638865 857.530486,883.234371 C834.71045,882.850145 815.029638,882.658035 798.487461,882.658035 C782.137635,882.658035 760.655971,882.850145 734.041826,883.234371 Z M917.952087,882.740532 C931.443616,839.130926 944.46452,790.959364 957.015189,738.2244 C969.565859,685.489436 980.399979,635.588884 989.517875,588.521248 C1012.53026,588.905473 1032.40342,589.097583 1049.13795,589.097583 C1068.56539,589.097583 1087.25801,588.905473 1105.21636,588.521248 L1095.21959,627.712063 C1102.85701,620.60389 1109.35859,614.984675 1114.72451,610.854249 C1120.09043,606.723824 1126.54485,602.689516 1134.08795,598.751203 C1141.63105,594.812891 1149.47609,591.59505 1157.62331,589.097583 C1165.77054,586.600117 1174.54308,584.63099 1183.9412,583.190144 C1193.33932,581.749298 1203.03936,581.028886 1213.04161,581.028886 C1226.89087,581.028886 1240.13316,582.517738 1252.76885,585.495486 C1265.40455,588.473235 1275.64955,592.699653 1283.50417,598.174868 C1291.35878,603.650083 1297.52665,610.469985 1302.00795,618.634779 C1306.48926,626.799573 1308.83754,635.588602 1309.05288,645.002129 C1309.26822,654.415656 1308.46953,664.117207 1306.65678,674.107073 C1305.33208,681.407359 1301.70416,697.160373 1295.77292,721.366586 L1271.93879,825.683315 C1267.24696,846.239385 1263.31494,865.258267 1260.14263,882.740532 C1240.78491,882.356306 1222.64288,882.164196 1205.716,882.164196 C1182.82624,882.164196 1161.92162,882.356306 1143.00151,882.740532 C1147.90499,865.258267 1154.44712,839.2754 1162.6281,804.791153 C1170.80908,770.306905 1176.17191,746.053027 1178.71673,732.028793 C1182.65597,710.320046 1181.21764,695.19139 1174.40167,686.642371 C1167.5857,678.093351 1157.83028,673.818905 1145.13512,673.818905 C1133.97877,673.818905 1122.78538,677.468994 1111.5546,684.76928 C1100.32383,692.069567 1090.75198,702.68364 1082.83876,716.611818 C1074.92554,730.539996 1066.96961,753.449104 1058.97071,785.339829 C1050.97182,817.230554 1043.58977,849.69713 1036.82435,882.740532 C1017.65898,882.356306 998.939908,882.164196 980.666573,882.164196 C961.431483,882.164196 940.526863,882.356306 917.952087,882.740532 Z M1320.95544,883.335194 C1328.11051,858.744756 1333.65944,838.765324 1337.60239,823.3963 C1342.941,802.456005 1349.23818,776.233001 1356.49413,744.726501 L1372.06078,676.430742 C1379.01979,645.500581 1385.34998,615.915653 1391.05153,587.675072 C1397.9564,553.863218 1404.24988,521.300587 1409.93215,489.9862 C1436.79156,490.370426 1456.95324,490.562536 1470.4178,490.562536 C1485.99822,490.562536 1504.49849,490.370426 1525.91917,489.9862 C1512.36162,540.319754 1496.97536,602.851533 1479.75993,677.583413 C1462.54449,752.315293 1448.27214,820.898534 1436.94245,883.335194 C1414.69947,882.950969 1395.88423,882.758859 1380.49615,882.758859 C1362.79987,882.758859 1342.95317,882.950969 1320.95544,883.335194 Z M1477.67897,717.826076 L1540.27333,646.360471 L1587.89887,589.015087 C1614.37357,589.399312 1634.43908,589.591422 1648.096,589.591422 C1666.94638,589.591422 1689.29361,589.399312 1715.13836,589.015087 L1644.17863,663.650537 C1627.61147,680.748576 1610.51203,699.191128 1592.87977,718.978747 C1601.84732,743.761298 1624.32284,798.512625 1660.30701,883.234371 C1637.87168,882.850145 1617.61382,882.658035 1599.53284,882.658035 C1581.06715,882.658035 1559.87401,882.850145 1535.95278,883.234371 L1524.60056,847.213401 C1520.51892,834.726068 1516.93687,824.256078 1513.85432,815.803115 C1512.75065,812.345084 1503.84517,788.811619 1487.13761,745.202013 L1477.67897,717.826076 Z M1688.77597,877.265345 C1689.54043,868.812381 1690.38331,859.927297 1691.30465,850.609827 C1692.22598,841.292356 1693.30263,828.469019 1694.53462,812.139431 L1695.99135,791.391352 C1713.32468,798.691638 1728.40094,804.118743 1741.22059,807.67283 C1754.04023,811.226917 1766.12422,813.003934 1777.47292,813.003934 C1786.89812,813.003934 1794.70082,812.139439 1800.88127,810.410424 C1807.06172,808.681409 1811.79464,806.18398 1815.08018,802.918062 C1818.36573,799.652145 1820.32221,796.290221 1820.9497,792.832191 C1821.50747,789.758386 1821.04669,786.732654 1819.56735,783.754906 C1818.088,780.777158 1814.26051,776.694822 1808.08476,771.507776 C1794.40363,759.981008 1782.40635,749.511017 1772.09259,740.09749 C1761.77883,730.683963 1754.25489,722.327181 1749.52053,715.026895 C1744.78618,707.726609 1741.59909,699.850102 1739.95917,691.397139 C1738.31925,682.944175 1738.31851,674.203174 1739.95695,665.173872 C1742.85038,649.22851 1750.1203,634.339991 1761.76693,620.507869 C1773.41356,606.675748 1788.69936,596.638004 1807.62479,590.394338 C1826.55022,584.150672 1848.80393,581.028886 1874.3866,581.028886 C1901.12338,581.028886 1934.63767,584.486865 1974.93048,591.402925 L1964.85322,672.378066 C1943.25207,663.156652 1921.68016,658.546014 1900.13686,658.546014 C1884.94114,658.546014 1873.65034,660.082893 1866.26411,663.156698 C1858.87788,666.230503 1854.60964,670.937196 1853.45924,677.276918 C1853.07577,679.390159 1853.09444,681.407313 1853.51523,683.328441 C1853.93603,685.249569 1854.96452,687.266723 1856.60074,689.379964 C1858.23696,691.493205 1860.34531,693.654442 1862.92585,695.863739 C1865.50639,698.073036 1871.83502,703.211976 1881.91193,711.280714 C1891.98884,719.349452 1899.82653,725.977244 1905.42522,731.16429 C1914.66301,739.617253 1921.46534,747.445732 1925.83242,754.649962 C1930.19949,761.854192 1933.13292,769.538589 1934.63279,777.703383 C1936.13265,785.868177 1936.06336,794.465096 1934.42491,803.494398 C1931.94981,817.134407 1926.35719,829.669579 1917.64688,841.100291 C1908.93657,852.531002 1897.20018,862.088471 1882.43737,869.772983 C1867.67456,877.457495 1852.23301,882.788545 1836.11224,885.766293 C1819.99148,888.744042 1803.66026,890.232894 1787.11808,890.232894 C1775.96173,890.232894 1762.14271,889.272344 1745.66061,887.351216 C1729.17851,885.430088 1710.21715,882.068165 1688.77597,877.265345 Z M1975.03628,883.234371 C1981.98219,859.796609 1987.50528,840.489562 1991.60572,825.312651 C1995.70616,810.135739 2000.52538,790.732638 2006.06351,767.102763 C2011.60165,743.472888 2017.44861,717.345939 2023.6046,688.721132 C2029.76058,660.096325 2036.56076,626.861308 2044.00535,589.015087 C2068.94124,589.399312 2088.91058,589.591422 2103.91395,589.591422 C2117.57086,589.591422 2137.22522,589.399312 2162.87761,589.015087 C2153.01899,625.324406 2144.87596,657.214653 2138.44827,684.686783 C2132.02057,712.158914 2125.82562,741.263567 2119.86322,772.001615 C2109.19341,826.56165 2102.08072,863.638865 2098.52494,883.234371 C2075.70491,882.850145 2056.0241,882.658035 2039.48192,882.658035 C2023.13209,882.658035 2001.65043,882.850145 1975.03628,883.234371 Z M2390.9531,798.786316 C2384.56249,814.923792 2378.72257,830.676805 2373.43316,846.045829 L2360.70616,881.202296 C2340.89649,885.428778 2325.54956,888.118317 2314.66493,889.270993 C2303.78029,890.42367 2293.337,891 2283.33476,891 C2266.98493,891 2252.71539,889.607203 2240.52571,886.821567 C2228.33603,884.035932 2218.68068,878.945019 2211.55937,871.548676 C2204.43806,864.152333 2200.21018,855.651469 2198.8756,846.045829 C2197.54101,836.440189 2197.84981,826.258363 2199.802,815.500047 C2200.15061,813.578919 2200.86555,810.168967 2201.94684,805.270091 C2203.02814,800.371215 2205.67967,789.468977 2209.9015,772.56305 L2234.34161,672.857005 L2189.33172,672.857005 C2192.69885,659.601222 2196.73669,642.119219 2201.44534,620.410472 L2207.17394,593.610871 L2255.06907,593.610871 C2257.82677,584.773682 2262.77281,565.466635 2269.90736,535.689151 L2321.07529,525.603279 C2330.42953,523.874264 2350.46611,519.455736 2381.18564,512.347562 C2375.27245,537.514339 2369.39544,564.601838 2363.55444,593.610871 L2429.33812,593.610871 C2420.54831,633.570333 2414.98566,659.985447 2412.65,672.857005 L2346.28927,672.857005 L2329.75432,744.898945 C2327.41742,755.657262 2325.97011,762.573219 2325.41234,765.647024 C2323.73903,774.868438 2323.35446,782.552835 2324.2586,788.700445 C2325.16275,794.848054 2327.91941,799.266583 2332.52866,801.956162 C2337.13791,804.645741 2342.52007,805.99051 2348.6753,805.99051 C2353.29172,805.99051 2358.16142,805.654318 2363.28456,804.981923 C2368.40769,804.309528 2377.63045,802.244347 2390.9531,798.786316 Z M2713.4511,796.002036 C2708.85891,807.528804 2698.9955,835.384742 2683.86058,879.570687 C2660.74608,883.989281 2641.46054,886.918957 2626.00336,888.359803 C2610.54618,889.800649 2595.02762,890.521062 2579.4472,890.521062 C2556.55744,890.521062 2535.78293,888.936155 2517.12304,885.766293 C2498.46315,882.596432 2482.89279,876.977217 2470.41149,868.908479 C2457.9302,860.839742 2448.06649,850.801999 2440.82008,838.794948 C2433.57368,826.787898 2428.99707,812.523737 2427.09013,796.002036 C2425.1832,779.480335 2425.81588,762.478607 2428.98819,744.996342 C2433.45034,720.405904 2442.72144,696.344136 2456.80176,672.810318 C2470.88208,649.2765 2486.86681,630.881975 2504.75644,617.626192 C2522.64606,604.370408 2542.19449,594.957022 2563.40229,589.385751 C2584.61009,583.81448 2605.79297,581.028886 2626.95157,581.028886 C2648.87957,581.028886 2669.33552,583.574343 2688.32004,588.665332 C2707.30455,593.756321 2722.57081,602.641405 2734.11927,615.32085 C2745.66774,628.000295 2752.9285,642.312484 2755.90178,658.257846 C2758.87505,674.203209 2758.68838,691.397046 2755.34177,709.839875 C2753.35471,720.790305 2749.89084,732.989285 2744.95003,746.437181 L2542.64178,746.725349 C2541.89166,749.799154 2541.29002,752.584747 2540.83683,755.082214 C2537.07189,775.830396 2541.70591,791.103135 2554.73904,800.900888 C2567.77217,810.698641 2584.96395,815.597444 2606.3149,815.597444 C2619.01006,815.597444 2633.75441,814.108592 2650.5484,811.130843 C2667.34239,808.153095 2688.30975,803.11021 2713.4511,796.002036 Z M2552.35458,702.576677 L2647.5678,702.576677 C2648.35278,699.310759 2648.95443,696.525166 2649.37276,694.219812 C2651.18551,684.229946 2650.95756,675.681055 2648.68891,668.572881 C2646.42026,661.464708 2642.26426,656.27774 2636.22078,653.011822 C2630.17731,649.745905 2623.02013,648.11297 2614.74904,648.11297 C2608.97852,648.11297 2603.23484,649.025492 2597.51784,650.850564 C2591.80084,652.675636 2586.45601,655.365174 2581.48319,658.919261 C2576.51038,662.473348 2572.16307,666.555684 2568.44116,671.166391 C2564.71924,675.777098 2561.79292,680.243654 2559.6621,684.566192 C2557.53128,688.88873 2555.09546,694.892165 2552.35458,702.576677 Z"
                id="Thinksitee" fill="#0d6efd"></path>
        </g>
    </g>
</svg>